<?xml version="1.0" encoding="UTF-8"?>
<svg xmlns="http://www.w3.org/2000/svg" xmlns:xlink="http://www.w3.org/1999/xlink"
     width="640.0" height="640.0" viewBox="0 -320.0 640.0 640.0">
<defs>
</defs>
<path d="M40,-280 L80,-320" stroke="black" stroke-width="2" stroke-opacity="1.0" stroke-dasharray="" />
<path d="M80,-240 L160,-320" stroke="black" stroke-width="2" stroke-opacity="1.0" stroke-dasharray="4 4" />
<path d="M120,-200 L160,-240" stroke="black" stroke-width="2" stroke-opacity="1.0" stroke-dasharray="4 4" />
<path d="M160,-240 L160,-320" stroke="black" stroke-width="2" stroke-opacity="1.0" stroke-dasharray="4 4" />
<path d="M160,-240 L240,-240" stroke="black" stroke-width="2" stroke-opacity="1.0" stroke-dasharray="" />
<path d="M160,-240 L240,-160" stroke="black" stroke-width="2" stroke-opacity="1.0" stroke-dasharray="4 4" />
<path d="M160,-320 L240,-240" stroke="black" stroke-width="2" stroke-opacity="1.0" stroke-dasharray="4 4" />
<path d="M200,-120 L240,-160" stroke="black" stroke-width="2" stroke-opacity="1.0" stroke-dasharray="" />
<path d="M220,-100 L240,-120" stroke="black" stroke-width="2" stroke-opacity="1.0" stroke-dasharray="4 4" />
<path d="M240,-120 L240,-160" stroke="black" stroke-width="2" stroke-opacity="1.0" stroke-dasharray="4 4" />
<path d="M240,-120 L280,-120" stroke="black" stroke-width="2" stroke-opacity="1.0" stroke-dasharray="" />
<path d="M240,-120 L280,-80" stroke="black" stroke-width="2" stroke-opacity="1.0" stroke-dasharray="4 4" />
<path d="M240,-160 L240,-240" stroke="black" stroke-width="2" stroke-opacity="1.0" stroke-dasharray="" />
<path d="M240,-160 L280,-120" stroke="black" stroke-width="2" stroke-opacity="1.0" stroke-dasharray="" />
<path d="M240,-160 L280,-200" stroke="black" stroke-width="2" stroke-opacity="1.0" stroke-dasharray="" />
<path d="M240,-240 L240,-320" stroke="black" stroke-width="2" stroke-opacity="1.0" stroke-dasharray="" />
<path d="M240,-240 L280,-200" stroke="black" stroke-width="2" stroke-opacity="1.0" stroke-dasharray="4 4" />
<path d="M240,-240 L320,-240" stroke="black" stroke-width="2" stroke-opacity="1.0" stroke-dasharray="" />
<path d="M260,-60 L280,-80" stroke="black" stroke-width="2" stroke-opacity="1.0" stroke-dasharray="" />
<path d="M270.0,-50.0 L280,-60" stroke="black" stroke-width="2" stroke-opacity="1.0" stroke-dasharray="4 4" />
<path d="M280,-60 L280,-80" stroke="black" stroke-width="2" stroke-opacity="1.0" stroke-dasharray="4 4" />
<path d="M280,-60 L300,-40" stroke="black" stroke-width="2" stroke-opacity="1.0" stroke-dasharray="4 4" />
<path d="M280,-60 L300,-60" stroke="black" stroke-width="2" stroke-opacity="1.0" stroke-dasharray="" />
<path d="M280,-80 L280,-120" stroke="black" stroke-width="2" stroke-opacity="1.0" stroke-dasharray="" />
<path d="M280,-80 L300,-60" stroke="black" stroke-width="2" stroke-opacity="1.0" stroke-dasharray="" />
<path d="M280,-80 L300,-100" stroke="black" stroke-width="2" stroke-opacity="1.0" stroke-dasharray="" />
<path d="M280,-120 L280,-200" stroke="black" stroke-width="2" stroke-opacity="1.0" stroke-dasharray="4 4" />
<path d="M280,-120 L300,-100" stroke="black" stroke-width="2" stroke-opacity="1.0" stroke-dasharray="4 4" />
<path d="M280,-120 L320,-120" stroke="black" stroke-width="2" stroke-opacity="1.0" stroke-dasharray="" />
<path d="M280,-200 L320,-200" stroke="black" stroke-width="2" stroke-opacity="1.0" stroke-dasharray="4 4" />
<path d="M290.0,-30.0 L300,-40" stroke="black" stroke-width="2" stroke-opacity="1.0" stroke-dasharray="4 4" />
<path d="M300,-20 L300,-40" stroke="black" stroke-width="2" stroke-opacity="1.0" stroke-dasharray="" />
<path d="M300,-20 L320,-20" stroke="black" stroke-width="2" stroke-opacity="1.0" stroke-dasharray="" />
<path d="M300,-20 L320,-40" stroke="black" stroke-width="2" stroke-opacity="1.0" stroke-dasharray="4 4" />
<path d="M300,-40 L320,-40" stroke="black" stroke-width="2" stroke-opacity="1.0" stroke-dasharray="4 4" />
<path d="M300,-60 L300,-100" stroke="black" stroke-width="2" stroke-opacity="1.0" stroke-dasharray="4 4" />
<path d="M300,-60 L320,-40" stroke="black" stroke-width="2" stroke-opacity="1.0" stroke-dasharray="" />
<path d="M300,-100 L320,-100" stroke="black" stroke-width="2" stroke-opacity="1.0" stroke-dasharray="4 4" />
<path d="M0,-320 L80,-320" stroke="black" stroke-width="2" stroke-opacity="1" stroke-dasharray="" />
<path d="M80,-320 L160,-320" stroke="black" stroke-width="2" stroke-opacity="1" stroke-dasharray="" />
<path d="M160,-320 L240,-320" stroke="black" stroke-width="2" stroke-opacity="1" stroke-dasharray="" />
<path d="M240,-320 L320,-320" stroke="black" stroke-width="2" stroke-opacity="1" stroke-dasharray="" />
<path d="M40.0,-280.0 L0.0,-240.0" stroke="black" stroke-width="2" stroke-opacity="1.0" stroke-dasharray="" />
<path d="M80.0,-240.0 L0.0,-160.0" stroke="black" stroke-width="2" stroke-opacity="1.0" stroke-dasharray="4 4" />
<path d="M120.0,-200.0 L80.0,-160.0" stroke="black" stroke-width="2" stroke-opacity="1.0" stroke-dasharray="4 4" />
<path d="M80.0,-160.0 L0.0,-160.0" stroke="black" stroke-width="2" stroke-opacity="1.0" stroke-dasharray="4 4" />
<path d="M80.0,-160.0 L80.0,-80.0" stroke="black" stroke-width="2" stroke-opacity="1.0" stroke-dasharray="" />
<path d="M80.0,-160.0 L160.0,-80.0" stroke="black" stroke-width="2" stroke-opacity="1.0" stroke-dasharray="4 4" />
<path d="M0.0,-160.0 L80.0,-80.0" stroke="black" stroke-width="2" stroke-opacity="1.0" stroke-dasharray="4 4" />
<path d="M200.0,-120.0 L160.0,-80.0" stroke="black" stroke-width="2" stroke-opacity="1.0" stroke-dasharray="" />
<path d="M220.0,-100.0 L200.0,-80.0" stroke="black" stroke-width="2" stroke-opacity="1.0" stroke-dasharray="4 4" />
<path d="M200.0,-80.0 L160.0,-80.0" stroke="black" stroke-width="2" stroke-opacity="1.0" stroke-dasharray="4 4" />
<path d="M200.0,-80.0 L200.0,-40.0" stroke="black" stroke-width="2" stroke-opacity="1.0" stroke-dasharray="" />
<path d="M200.0,-80.0 L240.0,-40.0" stroke="black" stroke-width="2" stroke-opacity="1.0" stroke-dasharray="4 4" />
<path d="M160.0,-80.0 L80.0,-80.0" stroke="black" stroke-width="2" stroke-opacity="1.0" stroke-dasharray="" />
<path d="M160.0,-80.0 L200.0,-40.0" stroke="black" stroke-width="2" stroke-opacity="1.0" stroke-dasharray="" />
<path d="M160.0,-80.0 L120.0,-40.0" stroke="black" stroke-width="2" stroke-opacity="1.0" stroke-dasharray="" />
<path d="M80.0,-80.0 L0.0,-80.0" stroke="black" stroke-width="2" stroke-opacity="1.0" stroke-dasharray="" />
<path d="M80.0,-80.0 L120.0,-40.0" stroke="black" stroke-width="2" stroke-opacity="1.0" stroke-dasharray="4 4" />
<path d="M80.0,-80.0 L80.0,-0.0" stroke="black" stroke-width="2" stroke-opacity="1.0" stroke-dasharray="" />
<path d="M260.0,-60.0 L240.0,-40.0" stroke="black" stroke-width="2" stroke-opacity="1.0" stroke-dasharray="" />
<path d="M270.0,-50.0 L260.0,-40.0" stroke="black" stroke-width="2" stroke-opacity="1.0" stroke-dasharray="4 4" />
<path d="M260.0,-40.0 L240.0,-40.0" stroke="black" stroke-width="2" stroke-opacity="1.0" stroke-dasharray="4 4" />
<path d="M260.0,-40.0 L280.0,-20.0" stroke="black" stroke-width="2" stroke-opacity="1.0" stroke-dasharray="4 4" />
<path d="M260.0,-40.0 L260.0,-20.0" stroke="black" stroke-width="2" stroke-opacity="1.0" stroke-dasharray="" />
<path d="M240.0,-40.0 L200.0,-40.0" stroke="black" stroke-width="2" stroke-opacity="1.0" stroke-dasharray="" />
<path d="M240.0,-40.0 L260.0,-20.0" stroke="black" stroke-width="2" stroke-opacity="1.0" stroke-dasharray="" />
<path d="M240.0,-40.0 L220.0,-20.0" stroke="black" stroke-width="2" stroke-opacity="1.0" stroke-dasharray="" />
<path d="M200.0,-40.0 L120.0,-40.0" stroke="black" stroke-width="2" stroke-opacity="1.0" stroke-dasharray="4 4" />
<path d="M200.0,-40.0 L220.0,-20.0" stroke="black" stroke-width="2" stroke-opacity="1.0" stroke-dasharray="4 4" />
<path d="M200.0,-40.0 L200.0,-0.0" stroke="black" stroke-width="2" stroke-opacity="1.0" stroke-dasharray="" />
<path d="M120.0,-40.0 L120.0,-0.0" stroke="black" stroke-width="2" stroke-opacity="1.0" stroke-dasharray="4 4" />
<path d="M290.0,-30.0 L280.0,-20.0" stroke="black" stroke-width="2" stroke-opacity="1.0" stroke-dasharray="4 4" />
<path d="M300.0,-20.0 L280.0,-20.0" stroke="black" stroke-width="2" stroke-opacity="1.0" stroke-dasharray="" />
<path d="M300.0,-20.0 L300.0,-0.0" stroke="black" stroke-width="2" stroke-opacity="1.0" stroke-dasharray="" />
<path d="M300.0,-20.0 L280.0,-0.0" stroke="black" stroke-width="2" stroke-opacity="1.0" stroke-dasharray="4 4" />
<path d="M280.0,-20.0 L280.0,-0.0" stroke="black" stroke-width="2" stroke-opacity="1.0" stroke-dasharray="4 4" />
<path d="M260.0,-20.0 L220.0,-20.0" stroke="black" stroke-width="2" stroke-opacity="1.0" stroke-dasharray="4 4" />
<path d="M260.0,-20.0 L280.0,-0.0" stroke="black" stroke-width="2" stroke-opacity="1.0" stroke-dasharray="" />
<path d="M220.0,-20.0 L220.0,-0.0" stroke="black" stroke-width="2" stroke-opacity="1.0" stroke-dasharray="4 4" />
<path d="M0.0,-320.0 L0.0,-240.0" stroke="black" stroke-width="2" stroke-opacity="1" stroke-dasharray="" />
<path d="M0.0,-240.0 L0.0,-160.0" stroke="black" stroke-width="2" stroke-opacity="1" stroke-dasharray="" />
<path d="M0.0,-160.0 L0.0,-80.0" stroke="black" stroke-width="2" stroke-opacity="1" stroke-dasharray="" />
<path d="M0.0,-80.0 L0.0,-0.0" stroke="black" stroke-width="2" stroke-opacity="1" stroke-dasharray="" />
<path d="M40.0,280.0 L80.0,320.0" stroke="black" stroke-width="2" stroke-opacity="1.0" stroke-dasharray="" />
<path d="M80.0,240.0 L160.0,320.0" stroke="black" stroke-width="2" stroke-opacity="1.0" stroke-dasharray="4 4" />
<path d="M120.0,200.0 L160.0,240.0" stroke="black" stroke-width="2" stroke-opacity="1.0" stroke-dasharray="4 4" />
<path d="M160.0,240.0 L160.0,320.0" stroke="black" stroke-width="2" stroke-opacity="1.0" stroke-dasharray="4 4" />
<path d="M160.0,240.0 L240.0,240.0" stroke="black" stroke-width="2" stroke-opacity="1.0" stroke-dasharray="" />
<path d="M160.0,240.0 L240.0,160.0" stroke="black" stroke-width="2" stroke-opacity="1.0" stroke-dasharray="4 4" />
<path d="M160.0,320.0 L240.0,240.0" stroke="black" stroke-width="2" stroke-opacity="1.0" stroke-dasharray="4 4" />
<path d="M200.0,120.0 L240.0,160.0" stroke="black" stroke-width="2" stroke-opacity="1.0" stroke-dasharray="" />
<path d="M220.0,100.0 L240.0,120.0" stroke="black" stroke-width="2" stroke-opacity="1.0" stroke-dasharray="4 4" />
<path d="M240.0,120.0 L240.0,160.0" stroke="black" stroke-width="2" stroke-opacity="1.0" stroke-dasharray="4 4" />
<path d="M240.0,120.0 L280.0,120.0" stroke="black" stroke-width="2" stroke-opacity="1.0" stroke-dasharray="" />
<path d="M240.0,120.0 L280.0,80.0" stroke="black" stroke-width="2" stroke-opacity="1.0" stroke-dasharray="4 4" />
<path d="M240.0,160.0 L240.0,240.0" stroke="black" stroke-width="2" stroke-opacity="1.0" stroke-dasharray="" />
<path d="M240.0,160.0 L280.0,120.0" stroke="black" stroke-width="2" stroke-opacity="1.0" stroke-dasharray="" />
<path d="M240.0,160.0 L280.0,200.0" stroke="black" stroke-width="2" stroke-opacity="1.0" stroke-dasharray="" />
<path d="M240.0,240.0 L240.0,320.0" stroke="black" stroke-width="2" stroke-opacity="1.0" stroke-dasharray="" />
<path d="M240.0,240.0 L280.0,200.0" stroke="black" stroke-width="2" stroke-opacity="1.0" stroke-dasharray="4 4" />
<path d="M240.0,240.0 L320.0,240.0" stroke="black" stroke-width="2" stroke-opacity="1.0" stroke-dasharray="" />
<path d="M260.0,60.0 L280.0,80.0" stroke="black" stroke-width="2" stroke-opacity="1.0" stroke-dasharray="" />
<path d="M270.0,50.0 L280.0,60.0" stroke="black" stroke-width="2" stroke-opacity="1.0" stroke-dasharray="4 4" />
<path d="M280.0,60.0 L280.0,80.0" stroke="black" stroke-width="2" stroke-opacity="1.0" stroke-dasharray="4 4" />
<path d="M280.0,60.0 L300.0,40.0" stroke="black" stroke-width="2" stroke-opacity="1.0" stroke-dasharray="4 4" />
<path d="M280.0,60.0 L300.0,60.0" stroke="black" stroke-width="2" stroke-opacity="1.0" stroke-dasharray="" />
<path d="M280.0,80.0 L280.0,120.0" stroke="black" stroke-width="2" stroke-opacity="1.0" stroke-dasharray="" />
<path d="M280.0,80.0 L300.0,60.0" stroke="black" stroke-width="2" stroke-opacity="1.0" stroke-dasharray="" />
<path d="M280.0,80.0 L300.0,100.0" stroke="black" stroke-width="2" stroke-opacity="1.0" stroke-dasharray="" />
<path d="M280.0,120.0 L280.0,200.0" stroke="black" stroke-width="2" stroke-opacity="1.0" stroke-dasharray="4 4" />
<path d="M280.0,120.0 L300.0,100.0" stroke="black" stroke-width="2" stroke-opacity="1.0" stroke-dasharray="4 4" />
<path d="M280.0,120.0 L320.0,120.0" stroke="black" stroke-width="2" stroke-opacity="1.0" stroke-dasharray="" />
<path d="M280.0,200.0 L320.0,200.0" stroke="black" stroke-width="2" stroke-opacity="1.0" stroke-dasharray="4 4" />
<path d="M290.0,30.0 L300.0,40.0" stroke="black" stroke-width="2" stroke-opacity="1.0" stroke-dasharray="4 4" />
<path d="M300.0,20.0 L300.0,40.0" stroke="black" stroke-width="2" stroke-opacity="1.0" stroke-dasharray="" />
<path d="M300.0,20.0 L320.0,20.0" stroke="black" stroke-width="2" stroke-opacity="1.0" stroke-dasharray="" />
<path d="M300.0,20.0 L320.0,40.0" stroke="black" stroke-width="2" stroke-opacity="1.0" stroke-dasharray="4 4" />
<path d="M300.0,40.0 L320.0,40.0" stroke="black" stroke-width="2" stroke-opacity="1.0" stroke-dasharray="4 4" />
<path d="M300.0,60.0 L300.0,100.0" stroke="black" stroke-width="2" stroke-opacity="1.0" stroke-dasharray="4 4" />
<path d="M300.0,60.0 L320.0,40.0" stroke="black" stroke-width="2" stroke-opacity="1.0" stroke-dasharray="" />
<path d="M300.0,100.0 L320.0,100.0" stroke="black" stroke-width="2" stroke-opacity="1.0" stroke-dasharray="4 4" />
<path d="M0.0,320.0 L80.0,320.0" stroke="black" stroke-width="2" stroke-opacity="1" stroke-dasharray="" />
<path d="M80.0,320.0 L160.0,320.0" stroke="black" stroke-width="2" stroke-opacity="1" stroke-dasharray="" />
<path d="M160.0,320.0 L240.0,320.0" stroke="black" stroke-width="2" stroke-opacity="1" stroke-dasharray="" />
<path d="M240.0,320.0 L320.0,320.0" stroke="black" stroke-width="2" stroke-opacity="1" stroke-dasharray="" />
<path d="M40.0,280.0 L0.0,240.0" stroke="black" stroke-width="2" stroke-opacity="1.0" stroke-dasharray="" />
<path d="M80.0,240.0 L0.0,160.0" stroke="black" stroke-width="2" stroke-opacity="1.0" stroke-dasharray="4 4" />
<path d="M120.0,200.0 L80.0,160.0" stroke="black" stroke-width="2" stroke-opacity="1.0" stroke-dasharray="4 4" />
<path d="M80.0,160.0 L0.0,160.0" stroke="black" stroke-width="2" stroke-opacity="1.0" stroke-dasharray="4 4" />
<path d="M80.0,160.0 L80.0,80.0" stroke="black" stroke-width="2" stroke-opacity="1.0" stroke-dasharray="" />
<path d="M80.0,160.0 L160.0,80.0" stroke="black" stroke-width="2" stroke-opacity="1.0" stroke-dasharray="4 4" />
<path d="M0.0,160.0 L80.0,80.0" stroke="black" stroke-width="2" stroke-opacity="1.0" stroke-dasharray="4 4" />
<path d="M200.0,120.0 L160.0,80.0" stroke="black" stroke-width="2" stroke-opacity="1.0" stroke-dasharray="" />
<path d="M220.0,100.0 L200.0,80.0" stroke="black" stroke-width="2" stroke-opacity="1.0" stroke-dasharray="4 4" />
<path d="M200.0,80.0 L160.0,80.0" stroke="black" stroke-width="2" stroke-opacity="1.0" stroke-dasharray="4 4" />
<path d="M200.0,80.0 L200.0,40.0" stroke="black" stroke-width="2" stroke-opacity="1.0" stroke-dasharray="" />
<path d="M200.0,80.0 L240.0,40.0" stroke="black" stroke-width="2" stroke-opacity="1.0" stroke-dasharray="4 4" />
<path d="M160.0,80.0 L80.0,80.0" stroke="black" stroke-width="2" stroke-opacity="1.0" stroke-dasharray="" />
<path d="M160.0,80.0 L200.0,40.0" stroke="black" stroke-width="2" stroke-opacity="1.0" stroke-dasharray="" />
<path d="M160.0,80.0 L120.0,40.0" stroke="black" stroke-width="2" stroke-opacity="1.0" stroke-dasharray="" />
<path d="M80.0,80.0 L0.0,80.0" stroke="black" stroke-width="2" stroke-opacity="1.0" stroke-dasharray="" />
<path d="M80.0,80.0 L120.0,40.0" stroke="black" stroke-width="2" stroke-opacity="1.0" stroke-dasharray="4 4" />
<path d="M80.0,80.0 L80.0,-0.0" stroke="black" stroke-width="2" stroke-opacity="1.0" stroke-dasharray="" />
<path d="M260.0,60.0 L240.0,40.0" stroke="black" stroke-width="2" stroke-opacity="1.0" stroke-dasharray="" />
<path d="M270.0,50.0 L260.0,40.0" stroke="black" stroke-width="2" stroke-opacity="1.0" stroke-dasharray="4 4" />
<path d="M260.0,40.0 L240.0,40.0" stroke="black" stroke-width="2" stroke-opacity="1.0" stroke-dasharray="4 4" />
<path d="M260.0,40.0 L280.0,20.0" stroke="black" stroke-width="2" stroke-opacity="1.0" stroke-dasharray="4 4" />
<path d="M260.0,40.0 L260.0,20.0" stroke="black" stroke-width="2" stroke-opacity="1.0" stroke-dasharray="" />
<path d="M240.0,40.0 L200.0,40.0" stroke="black" stroke-width="2" stroke-opacity="1.0" stroke-dasharray="" />
<path d="M240.0,40.0 L260.0,20.0" stroke="black" stroke-width="2" stroke-opacity="1.0" stroke-dasharray="" />
<path d="M240.0,40.0 L220.0,20.0" stroke="black" stroke-width="2" stroke-opacity="1.0" stroke-dasharray="" />
<path d="M200.0,40.0 L120.0,40.0" stroke="black" stroke-width="2" stroke-opacity="1.0" stroke-dasharray="4 4" />
<path d="M200.0,40.0 L220.0,20.0" stroke="black" stroke-width="2" stroke-opacity="1.0" stroke-dasharray="4 4" />
<path d="M200.0,40.0 L200.0,-0.0" stroke="black" stroke-width="2" stroke-opacity="1.0" stroke-dasharray="" />
<path d="M120.0,40.0 L120.0,-0.0" stroke="black" stroke-width="2" stroke-opacity="1.0" stroke-dasharray="4 4" />
<path d="M290.0,30.0 L280.0,20.0" stroke="black" stroke-width="2" stroke-opacity="1.0" stroke-dasharray="4 4" />
<path d="M300.0,20.0 L280.0,20.0" stroke="black" stroke-width="2" stroke-opacity="1.0" stroke-dasharray="" />
<path d="M300.0,20.0 L300.0,-0.0" stroke="black" stroke-width="2" stroke-opacity="1.0" stroke-dasharray="" />
<path d="M300.0,20.0 L280.0,-0.0" stroke="black" stroke-width="2" stroke-opacity="1.0" stroke-dasharray="4 4" />
<path d="M280.0,20.0 L280.0,-0.0" stroke="black" stroke-width="2" stroke-opacity="1.0" stroke-dasharray="4 4" />
<path d="M260.0,20.0 L220.0,20.0" stroke="black" stroke-width="2" stroke-opacity="1.0" stroke-dasharray="4 4" />
<path d="M260.0,20.0 L280.0,-0.0" stroke="black" stroke-width="2" stroke-opacity="1.0" stroke-dasharray="" />
<path d="M220.0,20.0 L220.0,-0.0" stroke="black" stroke-width="2" stroke-opacity="1.0" stroke-dasharray="4 4" />
<path d="M0.0,320.0 L0.0,240.0" stroke="black" stroke-width="2" stroke-opacity="1" stroke-dasharray="" />
<path d="M0.0,240.0 L0.0,160.0" stroke="black" stroke-width="2" stroke-opacity="1" stroke-dasharray="" />
<path d="M0.0,160.0 L0.0,80.0" stroke="black" stroke-width="2" stroke-opacity="1" stroke-dasharray="" />
<path d="M0.0,80.0 L0.0,-0.0" stroke="black" stroke-width="2" stroke-opacity="1" stroke-dasharray="" />
<path d="M600.0,-280.0 L560.0,-320.0" stroke="black" stroke-width="2" stroke-opacity="1.0" stroke-dasharray="" />
<path d="M560.0,-240.0 L480.0,-320.0" stroke="black" stroke-width="2" stroke-opacity="1.0" stroke-dasharray="4 4" />
<path d="M520.0,-200.0 L480.0,-240.0" stroke="black" stroke-width="2" stroke-opacity="1.0" stroke-dasharray="4 4" />
<path d="M480.0,-240.0 L480.0,-320.0" stroke="black" stroke-width="2" stroke-opacity="1.0" stroke-dasharray="4 4" />
<path d="M480.0,-240.0 L400.0,-240.0" stroke="black" stroke-width="2" stroke-opacity="1.0" stroke-dasharray="" />
<path d="M480.0,-240.0 L400.0,-160.0" stroke="black" stroke-width="2" stroke-opacity="1.0" stroke-dasharray="4 4" />
<path d="M480.0,-320.0 L400.0,-240.0" stroke="black" stroke-width="2" stroke-opacity="1.0" stroke-dasharray="4 4" />
<path d="M440.0,-120.0 L400.0,-160.0" stroke="black" stroke-width="2" stroke-opacity="1.0" stroke-dasharray="" />
<path d="M420.0,-100.0 L400.0,-120.0" stroke="black" stroke-width="2" stroke-opacity="1.0" stroke-dasharray="4 4" />
<path d="M400.0,-120.0 L400.0,-160.0" stroke="black" stroke-width="2" stroke-opacity="1.0" stroke-dasharray="4 4" />
<path d="M400.0,-120.0 L360.0,-120.0" stroke="black" stroke-width="2" stroke-opacity="1.0" stroke-dasharray="" />
<path d="M400.0,-120.0 L360.0,-80.0" stroke="black" stroke-width="2" stroke-opacity="1.0" stroke-dasharray="4 4" />
<path d="M400.0,-160.0 L400.0,-240.0" stroke="black" stroke-width="2" stroke-opacity="1.0" stroke-dasharray="" />
<path d="M400.0,-160.0 L360.0,-120.0" stroke="black" stroke-width="2" stroke-opacity="1.0" stroke-dasharray="" />
<path d="M400.0,-160.0 L360.0,-200.0" stroke="black" stroke-width="2" stroke-opacity="1.0" stroke-dasharray="" />
<path d="M400.0,-240.0 L400.0,-320.0" stroke="black" stroke-width="2" stroke-opacity="1.0" stroke-dasharray="" />
<path d="M400.0,-240.0 L360.0,-200.0" stroke="black" stroke-width="2" stroke-opacity="1.0" stroke-dasharray="4 4" />
<path d="M400.0,-240.0 L320.0,-240.0" stroke="black" stroke-width="2" stroke-opacity="1.0" stroke-dasharray="" />
<path d="M380.0,-60.0 L360.0,-80.0" stroke="black" stroke-width="2" stroke-opacity="1.0" stroke-dasharray="" />
<path d="M370.0,-50.0 L360.0,-60.0" stroke="black" stroke-width="2" stroke-opacity="1.0" stroke-dasharray="4 4" />
<path d="M360.0,-60.0 L360.0,-80.0" stroke="black" stroke-width="2" stroke-opacity="1.0" stroke-dasharray="4 4" />
<path d="M360.0,-60.0 L340.0,-40.0" stroke="black" stroke-width="2" stroke-opacity="1.0" stroke-dasharray="4 4" />
<path d="M360.0,-60.0 L340.0,-60.0" stroke="black" stroke-width="2" stroke-opacity="1.0" stroke-dasharray="" />
<path d="M360.0,-80.0 L360.0,-120.0" stroke="black" stroke-width="2" stroke-opacity="1.0" stroke-dasharray="" />
<path d="M360.0,-80.0 L340.0,-60.0" stroke="black" stroke-width="2" stroke-opacity="1.0" stroke-dasharray="" />
<path d="M360.0,-80.0 L340.0,-100.0" stroke="black" stroke-width="2" stroke-opacity="1.0" stroke-dasharray="" />
<path d="M360.0,-120.0 L360.0,-200.0" stroke="black" stroke-width="2" stroke-opacity="1.0" stroke-dasharray="4 4" />
<path d="M360.0,-120.0 L340.0,-100.0" stroke="black" stroke-width="2" stroke-opacity="1.0" stroke-dasharray="4 4" />
<path d="M360.0,-120.0 L320.0,-120.0" stroke="black" stroke-width="2" stroke-opacity="1.0" stroke-dasharray="" />
<path d="M360.0,-200.0 L320.0,-200.0" stroke="black" stroke-width="2" stroke-opacity="1.0" stroke-dasharray="4 4" />
<path d="M350.0,-30.0 L340.0,-40.0" stroke="black" stroke-width="2" stroke-opacity="1.0" stroke-dasharray="4 4" />
<path d="M340.0,-20.0 L340.0,-40.0" stroke="black" stroke-width="2" stroke-opacity="1.0" stroke-dasharray="" />
<path d="M340.0,-20.0 L320.0,-20.0" stroke="black" stroke-width="2" stroke-opacity="1.0" stroke-dasharray="" />
<path d="M340.0,-20.0 L320.0,-40.0" stroke="black" stroke-width="2" stroke-opacity="1.0" stroke-dasharray="4 4" />
<path d="M340.0,-40.0 L320.0,-40.0" stroke="black" stroke-width="2" stroke-opacity="1.0" stroke-dasharray="4 4" />
<path d="M340.0,-60.0 L340.0,-100.0" stroke="black" stroke-width="2" stroke-opacity="1.0" stroke-dasharray="4 4" />
<path d="M340.0,-60.0 L320.0,-40.0" stroke="black" stroke-width="2" stroke-opacity="1.0" stroke-dasharray="" />
<path d="M340.0,-100.0 L320.0,-100.0" stroke="black" stroke-width="2" stroke-opacity="1.0" stroke-dasharray="4 4" />
<path d="M640.0,-320.0 L560.0,-320.0" stroke="black" stroke-width="2" stroke-opacity="1" stroke-dasharray="" />
<path d="M560.0,-320.0 L480.0,-320.0" stroke="black" stroke-width="2" stroke-opacity="1" stroke-dasharray="" />
<path d="M480.0,-320.0 L400.0,-320.0" stroke="black" stroke-width="2" stroke-opacity="1" stroke-dasharray="" />
<path d="M400.0,-320.0 L320.0,-320.0" stroke="black" stroke-width="2" stroke-opacity="1" stroke-dasharray="" />
<path d="M600.0,-280.0 L640.0,-240.0" stroke="black" stroke-width="2" stroke-opacity="1.0" stroke-dasharray="" />
<path d="M560.0,-240.0 L640.0,-160.0" stroke="black" stroke-width="2" stroke-opacity="1.0" stroke-dasharray="4 4" />
<path d="M520.0,-200.0 L560.0,-160.0" stroke="black" stroke-width="2" stroke-opacity="1.0" stroke-dasharray="4 4" />
<path d="M560.0,-160.0 L640.0,-160.0" stroke="black" stroke-width="2" stroke-opacity="1.0" stroke-dasharray="4 4" />
<path d="M560.0,-160.0 L560.0,-80.0" stroke="black" stroke-width="2" stroke-opacity="1.0" stroke-dasharray="" />
<path d="M560.0,-160.0 L480.0,-80.0" stroke="black" stroke-width="2" stroke-opacity="1.0" stroke-dasharray="4 4" />
<path d="M640.0,-160.0 L560.0,-80.0" stroke="black" stroke-width="2" stroke-opacity="1.0" stroke-dasharray="4 4" />
<path d="M440.0,-120.0 L480.0,-80.0" stroke="black" stroke-width="2" stroke-opacity="1.0" stroke-dasharray="" />
<path d="M420.0,-100.0 L440.0,-80.0" stroke="black" stroke-width="2" stroke-opacity="1.0" stroke-dasharray="4 4" />
<path d="M440.0,-80.0 L480.0,-80.0" stroke="black" stroke-width="2" stroke-opacity="1.0" stroke-dasharray="4 4" />
<path d="M440.0,-80.0 L440.0,-40.0" stroke="black" stroke-width="2" stroke-opacity="1.0" stroke-dasharray="" />
<path d="M440.0,-80.0 L400.0,-40.0" stroke="black" stroke-width="2" stroke-opacity="1.0" stroke-dasharray="4 4" />
<path d="M480.0,-80.0 L560.0,-80.0" stroke="black" stroke-width="2" stroke-opacity="1.0" stroke-dasharray="" />
<path d="M480.0,-80.0 L440.0,-40.0" stroke="black" stroke-width="2" stroke-opacity="1.0" stroke-dasharray="" />
<path d="M480.0,-80.0 L520.0,-40.0" stroke="black" stroke-width="2" stroke-opacity="1.0" stroke-dasharray="" />
<path d="M560.0,-80.0 L640.0,-80.0" stroke="black" stroke-width="2" stroke-opacity="1.0" stroke-dasharray="" />
<path d="M560.0,-80.0 L520.0,-40.0" stroke="black" stroke-width="2" stroke-opacity="1.0" stroke-dasharray="4 4" />
<path d="M560.0,-80.0 L560.0,-0.0" stroke="black" stroke-width="2" stroke-opacity="1.0" stroke-dasharray="" />
<path d="M380.0,-60.0 L400.0,-40.0" stroke="black" stroke-width="2" stroke-opacity="1.0" stroke-dasharray="" />
<path d="M370.0,-50.0 L380.0,-40.0" stroke="black" stroke-width="2" stroke-opacity="1.0" stroke-dasharray="4 4" />
<path d="M380.0,-40.0 L400.0,-40.0" stroke="black" stroke-width="2" stroke-opacity="1.0" stroke-dasharray="4 4" />
<path d="M380.0,-40.0 L360.0,-20.0" stroke="black" stroke-width="2" stroke-opacity="1.0" stroke-dasharray="4 4" />
<path d="M380.0,-40.0 L380.0,-20.0" stroke="black" stroke-width="2" stroke-opacity="1.0" stroke-dasharray="" />
<path d="M400.0,-40.0 L440.0,-40.0" stroke="black" stroke-width="2" stroke-opacity="1.0" stroke-dasharray="" />
<path d="M400.0,-40.0 L380.0,-20.0" stroke="black" stroke-width="2" stroke-opacity="1.0" stroke-dasharray="" />
<path d="M400.0,-40.0 L420.0,-20.0" stroke="black" stroke-width="2" stroke-opacity="1.0" stroke-dasharray="" />
<path d="M440.0,-40.0 L520.0,-40.0" stroke="black" stroke-width="2" stroke-opacity="1.0" stroke-dasharray="4 4" />
<path d="M440.0,-40.0 L420.0,-20.0" stroke="black" stroke-width="2" stroke-opacity="1.0" stroke-dasharray="4 4" />
<path d="M440.0,-40.0 L440.0,-0.0" stroke="black" stroke-width="2" stroke-opacity="1.0" stroke-dasharray="" />
<path d="M520.0,-40.0 L520.0,-0.0" stroke="black" stroke-width="2" stroke-opacity="1.0" stroke-dasharray="4 4" />
<path d="M350.0,-30.0 L360.0,-20.0" stroke="black" stroke-width="2" stroke-opacity="1.0" stroke-dasharray="4 4" />
<path d="M340.0,-20.0 L360.0,-20.0" stroke="black" stroke-width="2" stroke-opacity="1.0" stroke-dasharray="" />
<path d="M340.0,-20.0 L340.0,-0.0" stroke="black" stroke-width="2" stroke-opacity="1.0" stroke-dasharray="" />
<path d="M340.0,-20.0 L360.0,-0.0" stroke="black" stroke-width="2" stroke-opacity="1.0" stroke-dasharray="4 4" />
<path d="M360.0,-20.0 L360.0,-0.0" stroke="black" stroke-width="2" stroke-opacity="1.0" stroke-dasharray="4 4" />
<path d="M380.0,-20.0 L420.0,-20.0" stroke="black" stroke-width="2" stroke-opacity="1.0" stroke-dasharray="4 4" />
<path d="M380.0,-20.0 L360.0,-0.0" stroke="black" stroke-width="2" stroke-opacity="1.0" stroke-dasharray="" />
<path d="M420.0,-20.0 L420.0,-0.0" stroke="black" stroke-width="2" stroke-opacity="1.0" stroke-dasharray="4 4" />
<path d="M640.0,-320.0 L640.0,-240.0" stroke="black" stroke-width="2" stroke-opacity="1" stroke-dasharray="" />
<path d="M640.0,-240.0 L640.0,-160.0" stroke="black" stroke-width="2" stroke-opacity="1" stroke-dasharray="" />
<path d="M640.0,-160.0 L640.0,-80.0" stroke="black" stroke-width="2" stroke-opacity="1" stroke-dasharray="" />
<path d="M640.0,-80.0 L640.0,-0.0" stroke="black" stroke-width="2" stroke-opacity="1" stroke-dasharray="" />
<path d="M600.0,280.0 L560.0,320.0" stroke="black" stroke-width="2" stroke-opacity="1.0" stroke-dasharray="" />
<path d="M560.0,240.0 L480.0,320.0" stroke="black" stroke-width="2" stroke-opacity="1.0" stroke-dasharray="4 4" />
<path d="M520.0,200.0 L480.0,240.0" stroke="black" stroke-width="2" stroke-opacity="1.0" stroke-dasharray="4 4" />
<path d="M480.0,240.0 L480.0,320.0" stroke="black" stroke-width="2" stroke-opacity="1.0" stroke-dasharray="4 4" />
<path d="M480.0,240.0 L400.0,240.0" stroke="black" stroke-width="2" stroke-opacity="1.0" stroke-dasharray="" />
<path d="M480.0,240.0 L400.0,160.0" stroke="black" stroke-width="2" stroke-opacity="1.0" stroke-dasharray="4 4" />
<path d="M480.0,320.0 L400.0,240.0" stroke="black" stroke-width="2" stroke-opacity="1.0" stroke-dasharray="4 4" />
<path d="M440.0,120.0 L400.0,160.0" stroke="black" stroke-width="2" stroke-opacity="1.0" stroke-dasharray="" />
<path d="M420.0,100.0 L400.0,120.0" stroke="black" stroke-width="2" stroke-opacity="1.0" stroke-dasharray="4 4" />
<path d="M400.0,120.0 L400.0,160.0" stroke="black" stroke-width="2" stroke-opacity="1.0" stroke-dasharray="4 4" />
<path d="M400.0,120.0 L360.0,120.0" stroke="black" stroke-width="2" stroke-opacity="1.0" stroke-dasharray="" />
<path d="M400.0,120.0 L360.0,80.0" stroke="black" stroke-width="2" stroke-opacity="1.0" stroke-dasharray="4 4" />
<path d="M400.0,160.0 L400.0,240.0" stroke="black" stroke-width="2" stroke-opacity="1.0" stroke-dasharray="" />
<path d="M400.0,160.0 L360.0,120.0" stroke="black" stroke-width="2" stroke-opacity="1.0" stroke-dasharray="" />
<path d="M400.0,160.0 L360.0,200.0" stroke="black" stroke-width="2" stroke-opacity="1.0" stroke-dasharray="" />
<path d="M400.0,240.0 L400.0,320.0" stroke="black" stroke-width="2" stroke-opacity="1.0" stroke-dasharray="" />
<path d="M400.0,240.0 L360.0,200.0" stroke="black" stroke-width="2" stroke-opacity="1.0" stroke-dasharray="4 4" />
<path d="M400.0,240.0 L320.0,240.0" stroke="black" stroke-width="2" stroke-opacity="1.0" stroke-dasharray="" />
<path d="M380.0,60.0 L360.0,80.0" stroke="black" stroke-width="2" stroke-opacity="1.0" stroke-dasharray="" />
<path d="M370.0,50.0 L360.0,60.0" stroke="black" stroke-width="2" stroke-opacity="1.0" stroke-dasharray="4 4" />
<path d="M360.0,60.0 L360.0,80.0" stroke="black" stroke-width="2" stroke-opacity="1.0" stroke-dasharray="4 4" />
<path d="M360.0,60.0 L340.0,40.0" stroke="black" stroke-width="2" stroke-opacity="1.0" stroke-dasharray="4 4" />
<path d="M360.0,60.0 L340.0,60.0" stroke="black" stroke-width="2" stroke-opacity="1.0" stroke-dasharray="" />
<path d="M360.0,80.0 L360.0,120.0" stroke="black" stroke-width="2" stroke-opacity="1.0" stroke-dasharray="" />
<path d="M360.0,80.0 L340.0,60.0" stroke="black" stroke-width="2" stroke-opacity="1.0" stroke-dasharray="" />
<path d="M360.0,80.0 L340.0,100.0" stroke="black" stroke-width="2" stroke-opacity="1.0" stroke-dasharray="" />
<path d="M360.0,120.0 L360.0,200.0" stroke="black" stroke-width="2" stroke-opacity="1.0" stroke-dasharray="4 4" />
<path d="M360.0,120.0 L340.0,100.0" stroke="black" stroke-width="2" stroke-opacity="1.0" stroke-dasharray="4 4" />
<path d="M360.0,120.0 L320.0,120.0" stroke="black" stroke-width="2" stroke-opacity="1.0" stroke-dasharray="" />
<path d="M360.0,200.0 L320.0,200.0" stroke="black" stroke-width="2" stroke-opacity="1.0" stroke-dasharray="4 4" />
<path d="M350.0,30.0 L340.0,40.0" stroke="black" stroke-width="2" stroke-opacity="1.0" stroke-dasharray="4 4" />
<path d="M340.0,20.0 L340.0,40.0" stroke="black" stroke-width="2" stroke-opacity="1.0" stroke-dasharray="" />
<path d="M340.0,20.0 L320.0,20.0" stroke="black" stroke-width="2" stroke-opacity="1.0" stroke-dasharray="" />
<path d="M340.0,20.0 L320.0,40.0" stroke="black" stroke-width="2" stroke-opacity="1.0" stroke-dasharray="4 4" />
<path d="M340.0,40.0 L320.0,40.0" stroke="black" stroke-width="2" stroke-opacity="1.0" stroke-dasharray="4 4" />
<path d="M340.0,60.0 L340.0,100.0" stroke="black" stroke-width="2" stroke-opacity="1.0" stroke-dasharray="4 4" />
<path d="M340.0,60.0 L320.0,40.0" stroke="black" stroke-width="2" stroke-opacity="1.0" stroke-dasharray="" />
<path d="M340.0,100.0 L320.0,100.0" stroke="black" stroke-width="2" stroke-opacity="1.0" stroke-dasharray="4 4" />
<path d="M640.0,320.0 L560.0,320.0" stroke="black" stroke-width="2" stroke-opacity="1" stroke-dasharray="" />
<path d="M560.0,320.0 L480.0,320.0" stroke="black" stroke-width="2" stroke-opacity="1" stroke-dasharray="" />
<path d="M480.0,320.0 L400.0,320.0" stroke="black" stroke-width="2" stroke-opacity="1" stroke-dasharray="" />
<path d="M400.0,320.0 L320.0,320.0" stroke="black" stroke-width="2" stroke-opacity="1" stroke-dasharray="" />
<path d="M600.0,280.0 L640.0,240.0" stroke="black" stroke-width="2" stroke-opacity="1.0" stroke-dasharray="" />
<path d="M560.0,240.0 L640.0,160.0" stroke="black" stroke-width="2" stroke-opacity="1.0" stroke-dasharray="4 4" />
<path d="M520.0,200.0 L560.0,160.0" stroke="black" stroke-width="2" stroke-opacity="1.0" stroke-dasharray="4 4" />
<path d="M560.0,160.0 L640.0,160.0" stroke="black" stroke-width="2" stroke-opacity="1.0" stroke-dasharray="4 4" />
<path d="M560.0,160.0 L560.0,80.0" stroke="black" stroke-width="2" stroke-opacity="1.0" stroke-dasharray="" />
<path d="M560.0,160.0 L480.0,80.0" stroke="black" stroke-width="2" stroke-opacity="1.0" stroke-dasharray="4 4" />
<path d="M640.0,160.0 L560.0,80.0" stroke="black" stroke-width="2" stroke-opacity="1.0" stroke-dasharray="4 4" />
<path d="M440.0,120.0 L480.0,80.0" stroke="black" stroke-width="2" stroke-opacity="1.0" stroke-dasharray="" />
<path d="M420.0,100.0 L440.0,80.0" stroke="black" stroke-width="2" stroke-opacity="1.0" stroke-dasharray="4 4" />
<path d="M440.0,80.0 L480.0,80.0" stroke="black" stroke-width="2" stroke-opacity="1.0" stroke-dasharray="4 4" />
<path d="M440.0,80.0 L440.0,40.0" stroke="black" stroke-width="2" stroke-opacity="1.0" stroke-dasharray="" />
<path d="M440.0,80.0 L400.0,40.0" stroke="black" stroke-width="2" stroke-opacity="1.0" stroke-dasharray="4 4" />
<path d="M480.0,80.0 L560.0,80.0" stroke="black" stroke-width="2" stroke-opacity="1.0" stroke-dasharray="" />
<path d="M480.0,80.0 L440.0,40.0" stroke="black" stroke-width="2" stroke-opacity="1.0" stroke-dasharray="" />
<path d="M480.0,80.0 L520.0,40.0" stroke="black" stroke-width="2" stroke-opacity="1.0" stroke-dasharray="" />
<path d="M560.0,80.0 L640.0,80.0" stroke="black" stroke-width="2" stroke-opacity="1.0" stroke-dasharray="" />
<path d="M560.0,80.0 L520.0,40.0" stroke="black" stroke-width="2" stroke-opacity="1.0" stroke-dasharray="4 4" />
<path d="M560.0,80.0 L560.0,-0.0" stroke="black" stroke-width="2" stroke-opacity="1.0" stroke-dasharray="" />
<path d="M380.0,60.0 L400.0,40.0" stroke="black" stroke-width="2" stroke-opacity="1.0" stroke-dasharray="" />
<path d="M370.0,50.0 L380.0,40.0" stroke="black" stroke-width="2" stroke-opacity="1.0" stroke-dasharray="4 4" />
<path d="M380.0,40.0 L400.0,40.0" stroke="black" stroke-width="2" stroke-opacity="1.0" stroke-dasharray="4 4" />
<path d="M380.0,40.0 L360.0,20.0" stroke="black" stroke-width="2" stroke-opacity="1.0" stroke-dasharray="4 4" />
<path d="M380.0,40.0 L380.0,20.0" stroke="black" stroke-width="2" stroke-opacity="1.0" stroke-dasharray="" />
<path d="M400.0,40.0 L440.0,40.0" stroke="black" stroke-width="2" stroke-opacity="1.0" stroke-dasharray="" />
<path d="M400.0,40.0 L380.0,20.0" stroke="black" stroke-width="2" stroke-opacity="1.0" stroke-dasharray="" />
<path d="M400.0,40.0 L420.0,20.0" stroke="black" stroke-width="2" stroke-opacity="1.0" stroke-dasharray="" />
<path d="M440.0,40.0 L520.0,40.0" stroke="black" stroke-width="2" stroke-opacity="1.0" stroke-dasharray="4 4" />
<path d="M440.0,40.0 L420.0,20.0" stroke="black" stroke-width="2" stroke-opacity="1.0" stroke-dasharray="4 4" />
<path d="M440.0,40.0 L440.0,-0.0" stroke="black" stroke-width="2" stroke-opacity="1.0" stroke-dasharray="" />
<path d="M520.0,40.0 L520.0,-0.0" stroke="black" stroke-width="2" stroke-opacity="1.0" stroke-dasharray="4 4" />
<path d="M350.0,30.0 L360.0,20.0" stroke="black" stroke-width="2" stroke-opacity="1.0" stroke-dasharray="4 4" />
<path d="M340.0,20.0 L360.0,20.0" stroke="black" stroke-width="2" stroke-opacity="1.0" stroke-dasharray="" />
<path d="M340.0,20.0 L340.0,-0.0" stroke="black" stroke-width="2" stroke-opacity="1.0" stroke-dasharray="" />
<path d="M340.0,20.0 L360.0,-0.0" stroke="black" stroke-width="2" stroke-opacity="1.0" stroke-dasharray="4 4" />
<path d="M360.0,20.0 L360.0,-0.0" stroke="black" stroke-width="2" stroke-opacity="1.0" stroke-dasharray="4 4" />
<path d="M380.0,20.0 L420.0,20.0" stroke="black" stroke-width="2" stroke-opacity="1.0" stroke-dasharray="4 4" />
<path d="M380.0,20.0 L360.0,-0.0" stroke="black" stroke-width="2" stroke-opacity="1.0" stroke-dasharray="" />
<path d="M420.0,20.0 L420.0,-0.0" stroke="black" stroke-width="2" stroke-opacity="1.0" stroke-dasharray="4 4" />
<path d="M640.0,320.0 L640.0,240.0" stroke="black" stroke-width="2" stroke-opacity="1" stroke-dasharray="" />
<path d="M640.0,240.0 L640.0,160.0" stroke="black" stroke-width="2" stroke-opacity="1" stroke-dasharray="" />
<path d="M640.0,160.0 L640.0,80.0" stroke="black" stroke-width="2" stroke-opacity="1" stroke-dasharray="" />
<path d="M640.0,80.0 L640.0,-0.0" stroke="black" stroke-width="2" stroke-opacity="1" stroke-dasharray="" />
</svg>