<?xml version="1.0" encoding="UTF-8"?>
<svg xmlns="http://www.w3.org/2000/svg" xmlns:xlink="http://www.w3.org/1999/xlink"
     width="160.0" height="160.0" viewBox="0.0 -160.0 160.0 160.0">
<defs>
</defs>
<path d="M40,0 L40,-40" stroke="red" stroke-width="2" stroke-opacity="0.5" stroke-dasharray="" />
<path d="M80,0 L80,-40" stroke="blue" stroke-width="2" stroke-opacity="1.0" stroke-dasharray="" />
<path d="M40,-40 L80,-40" stroke="red" stroke-width="2" stroke-opacity="1.0" stroke-dasharray="" />
<path d="M40,-40 L80,-60" stroke="blue" stroke-width="2" stroke-opacity="0.6081734479693928" stroke-dasharray="" />
<path d="M80,-40 L80,-60" stroke="red" stroke-width="2" stroke-opacity="1.0" stroke-dasharray="" />
<path d="M80,-60 L70.0,-70.0" stroke="blue" stroke-width="2" stroke-opacity="0.7211420616236957" stroke-dasharray="" />
<path d="M80,0 L0,0" stroke="black" stroke-width="2" stroke-opacity="1" stroke-dasharray="" />
<path d="M0.0,-40.0 L40.0,-40.0" stroke="red" stroke-width="2" stroke-opacity="0.5" stroke-dasharray="" />
<path d="M0.0,-80.0 L40.0,-80.0" stroke="blue" stroke-width="2" stroke-opacity="1.0" stroke-dasharray="" />
<path d="M40.0,-40.0 L40.0,-80.0" stroke="red" stroke-width="2" stroke-opacity="1.0" stroke-dasharray="" />
<path d="M40.0,-40.0 L60.0,-80.0" stroke="blue" stroke-width="2" stroke-opacity="0.6081734479693928" stroke-dasharray="" />
<path d="M40.0,-80.0 L60.0,-80.0" stroke="red" stroke-width="2" stroke-opacity="1.0" stroke-dasharray="" />
<path d="M60.0,-80.0 L70.0,-70.0" stroke="blue" stroke-width="2" stroke-opacity="0.7211420616236957" stroke-dasharray="" />
<path d="M0.0,-80.0 L0.0,-0.0" stroke="black" stroke-width="2" stroke-opacity="1" stroke-dasharray="" />
<path d="M120.0,-0.0 L120.0,-40.0" stroke="red" stroke-width="2" stroke-opacity="0.5" stroke-dasharray="" />
<path d="M120.0,-40.0 L80.0,-40.0" stroke="red" stroke-width="2" stroke-opacity="1.0" stroke-dasharray="" />
<path d="M120.0,-40.0 L80.0,-60.0" stroke="blue" stroke-width="2" stroke-opacity="0.6081734479693928" stroke-dasharray="" />
<path d="M80.0,-60.0 L90.0,-70.0" stroke="blue" stroke-width="2" stroke-opacity="0.7211420616236957" stroke-dasharray="" />
<path d="M80.0,-0.0 L160.0,-0.0" stroke="black" stroke-width="2" stroke-opacity="1" stroke-dasharray="" />
<path d="M160.0,-40.0 L120.0,-40.0" stroke="red" stroke-width="2" stroke-opacity="0.5" stroke-dasharray="" />
<path d="M160.0,-80.0 L120.0,-80.0" stroke="blue" stroke-width="2" stroke-opacity="1.0" stroke-dasharray="" />
<path d="M120.0,-40.0 L120.0,-80.0" stroke="red" stroke-width="2" stroke-opacity="1.0" stroke-dasharray="" />
<path d="M120.0,-40.0 L100.0,-80.0" stroke="blue" stroke-width="2" stroke-opacity="0.6081734479693928" stroke-dasharray="" />
<path d="M120.0,-80.0 L100.0,-80.0" stroke="red" stroke-width="2" stroke-opacity="1.0" stroke-dasharray="" />
<path d="M100.0,-80.0 L90.0,-70.0" stroke="blue" stroke-width="2" stroke-opacity="0.7211420616236957" stroke-dasharray="" />
<path d="M160.0,-80.0 L160.0,-0.0" stroke="black" stroke-width="2" stroke-opacity="1" stroke-dasharray="" />
<path d="M40.0,-160.0 L40.0,-120.0" stroke="red" stroke-width="2" stroke-opacity="0.5" stroke-dasharray="" />
<path d="M80.0,-160.0 L80.0,-120.0" stroke="blue" stroke-width="2" stroke-opacity="1.0" stroke-dasharray="" />
<path d="M40.0,-120.0 L80.0,-120.0" stroke="red" stroke-width="2" stroke-opacity="1.0" stroke-dasharray="" />
<path d="M40.0,-120.0 L80.0,-100.0" stroke="blue" stroke-width="2" stroke-opacity="0.6081734479693928" stroke-dasharray="" />
<path d="M80.0,-120.0 L80.0,-100.0" stroke="red" stroke-width="2" stroke-opacity="1.0" stroke-dasharray="" />
<path d="M80.0,-100.0 L70.0,-90.0" stroke="blue" stroke-width="2" stroke-opacity="0.7211420616236957" stroke-dasharray="" />
<path d="M80.0,-160.0 L0.0,-160.0" stroke="black" stroke-width="2" stroke-opacity="1" stroke-dasharray="" />
<path d="M0.0,-120.0 L40.0,-120.0" stroke="red" stroke-width="2" stroke-opacity="0.5" stroke-dasharray="" />
<path d="M40.0,-120.0 L40.0,-80.0" stroke="red" stroke-width="2" stroke-opacity="1.0" stroke-dasharray="" />
<path d="M40.0,-120.0 L60.0,-80.0" stroke="blue" stroke-width="2" stroke-opacity="0.6081734479693928" stroke-dasharray="" />
<path d="M60.0,-80.0 L70.0,-90.0" stroke="blue" stroke-width="2" stroke-opacity="0.7211420616236957" stroke-dasharray="" />
<path d="M0.0,-80.0 L0.0,-160.0" stroke="black" stroke-width="2" stroke-opacity="1" stroke-dasharray="" />
<path d="M120.0,-160.0 L120.0,-120.0" stroke="red" stroke-width="2" stroke-opacity="0.5" stroke-dasharray="" />
<path d="M120.0,-120.0 L80.0,-120.0" stroke="red" stroke-width="2" stroke-opacity="1.0" stroke-dasharray="" />
<path d="M120.0,-120.0 L80.0,-100.0" stroke="blue" stroke-width="2" stroke-opacity="0.6081734479693928" stroke-dasharray="" />
<path d="M80.0,-100.0 L90.0,-90.0" stroke="blue" stroke-width="2" stroke-opacity="0.7211420616236957" stroke-dasharray="" />
<path d="M80.0,-160.0 L160.0,-160.0" stroke="black" stroke-width="2" stroke-opacity="1" stroke-dasharray="" />
<path d="M160.0,-120.0 L120.0,-120.0" stroke="red" stroke-width="2" stroke-opacity="0.5" stroke-dasharray="" />
<path d="M120.0,-120.0 L120.0,-80.0" stroke="red" stroke-width="2" stroke-opacity="1.0" stroke-dasharray="" />
<path d="M120.0,-120.0 L100.0,-80.0" stroke="blue" stroke-width="2" stroke-opacity="0.6081734479693928" stroke-dasharray="" />
<path d="M100.0,-80.0 L90.0,-90.0" stroke="blue" stroke-width="2" stroke-opacity="0.7211420616236957" stroke-dasharray="" />
<path d="M160.0,-80.0 L160.0,-160.0" stroke="black" stroke-width="2" stroke-opacity="1" stroke-dasharray="" />
</svg>